Coordinates
version=1
nRows=54
nColumns=12
inDegrees=yes

Units are S.I. units (second, meters, Newtons, ...)
Angles are in degrees

endheader
time	SC_y	SC_z	SC_x	AC_y	AC_z	AC_x	GH_y	GH_z	GH_yy	EL_x	PS_y
       0.0              -54.82          22.94          67.31          52.87         -17.76         -15.53          117.6          3.363         -127.0          101.1          103.1
   0.02317              -54.81          22.93          67.31          52.87         -17.76         -15.53          117.6          3.367         -127.0          101.1          103.1
   0.04635              -54.81          22.93          67.31          52.87         -17.76         -15.52          117.5          3.371         -126.9          101.1          103.1
   0.06952              -54.81          22.93           67.3          52.87         -17.75         -15.52          117.5          3.375         -126.9          101.1          103.1
    0.0927              -54.81          22.93           67.3          52.87         -17.75         -15.51          117.5          3.379         -126.9          101.1          103.1
    0.1159               -54.8          22.93           67.3          52.87         -17.75         -15.51          117.5          3.384         -126.9          101.1          103.2
     0.139               -54.8          22.93          67.29          52.87         -17.75          -15.5          117.4          3.389         -126.9          101.1          103.2
    0.1622               -54.8          22.93          67.29          52.87         -17.74          -15.5          117.4          3.394         -126.9          101.1          103.2
    0.1854              -54.79          22.92          67.29          52.88         -17.74         -15.49          117.4            3.4         -126.9          101.1          103.2
    0.2086              -54.79          22.92          67.29          52.88         -17.74         -15.48          117.4          3.406         -126.8          101.1          103.2
    0.2317              -54.79          22.92          67.28          52.88         -17.74         -15.47          117.3          3.413         -126.8          101.1          103.2
    0.2549              -54.78          22.92          67.28          52.88         -17.73         -15.46          117.3           3.42         -126.8          101.1          103.2
    0.2781              -54.78          22.92          67.27          52.88         -17.73         -15.46          117.2          3.428         -126.8          101.1          103.2
    0.3013              -54.77          22.91          67.27          52.88         -17.73         -15.45          117.2          3.436         -126.8          101.1          103.2
    0.3244              -54.77          22.91          67.26          52.88         -17.72         -15.43          117.1          3.445         -126.7          101.1          103.2
    0.3476              -54.76          22.91          67.26          52.89         -17.72         -15.42          117.1          3.455         -126.7          101.1          103.2
    0.3708              -54.76           22.9          67.25          52.89         -17.71         -15.41          117.0          3.466         -126.7          101.1          103.2
     0.394              -54.75           22.9          67.25          52.89         -17.71          -15.4          117.0          3.478         -126.6          101.1          103.2
    0.4171              -54.74           22.9          67.24          52.89          -17.7         -15.38          116.9           3.49         -126.6          101.1          103.2
    0.4403              -54.74          22.89          67.23           52.9          -17.7         -15.36          116.8          3.504         -126.6          101.1          103.3
    0.4635              -54.73          22.89          67.22           52.9         -17.69         -15.35          116.8          3.519         -126.5          101.1          103.3
    0.4867              -54.72          22.88          67.21           52.9         -17.68         -15.32          116.7          3.536         -126.5          101.1          103.3
    0.5098              -54.71          22.88           67.2           52.9         -17.67          -15.3          116.6          3.555         -126.4          101.1          103.3
     0.533               -54.7          22.87          67.19          52.91         -17.67         -15.28          116.5          3.575         -126.3          101.1          103.3
    0.5562              -54.68          22.86          67.18          52.91         -17.66         -15.25          116.3          3.598         -126.3          101.1          103.3
    0.5794              -54.67          22.86          67.16          52.92         -17.64         -15.22          116.2          3.624         -126.2          101.1          103.4
    0.6025              -54.65          22.85          67.15          52.92         -17.63         -15.19          116.1          3.652         -126.1          101.1          103.4
    0.6257              -54.64          22.84          67.13          52.93         -17.62         -15.15          115.9          3.684         -126.0          101.1          103.4
    0.6489              -54.62          22.83          67.11          52.94          -17.6          -15.1          115.7          3.721         -125.9          101.1          103.5
    0.6721              -54.59          22.81          67.09          52.94         -17.58         -15.05          115.5          3.762         -125.8          101.1          103.5
    0.6952              -54.57           22.8          67.06          52.95         -17.56          -15.0          115.2          3.809         -125.7          101.1          103.5
    0.7184              -54.54          22.78          67.03          52.96         -17.54         -14.93          115.0          3.863         -125.5          101.1          103.6
    0.7416               -54.5          22.76          66.99          52.97         -17.51         -14.86          114.6          3.925         -125.3          101.1          103.7
    0.7648              -54.46          22.74          66.95          52.99         -17.48         -14.77          114.2          3.998         -125.1          101.1          103.7
    0.7879              -54.41          22.72           66.9           53.0         -17.44         -14.67          113.8          4.083         -124.9          101.1          103.8
    0.8111              -54.36          22.69          66.85          53.02          -17.4         -14.55          113.3          4.183         -124.6          101.1          103.9
    0.8343              -54.29          22.65          66.78          53.04         -17.35          -14.4          112.6          4.301         -124.2          101.1          104.0
    0.8575              -54.21          22.61           66.7          53.07         -17.28         -14.23          111.9          4.444         -123.8          101.2          104.1
    0.8806              -54.12          22.56           66.6           53.1         -17.21         -14.02          111.0          4.616         -123.3          101.2          104.3
    0.9038               -54.0          22.49          66.49          53.14         -17.11         -13.77          109.9          4.827         -122.7          101.2          104.5
     0.927              -53.86          22.41          66.34          53.19          -17.0         -13.46          108.5          5.086         -121.9          101.2          104.7
    0.9502              -53.68          22.31          66.16          53.25         -16.86         -13.07          106.8           5.41         -120.9          101.2          105.0
    0.9733              -53.45          22.19          65.93          53.32         -16.68         -12.58          104.7          5.818         -119.7          101.3          105.4
    0.9965              -53.16          22.03          65.64          53.42         -16.45         -11.95          102.0          6.337         -118.2          101.3          105.9
      1.02              -52.79          21.83          65.26          53.54         -16.16         -11.15          98.46            7.0         -116.3          101.4          106.5
     1.043              -52.32          21.57          64.78           53.7         -15.78         -10.12          93.99          7.852         -113.8          101.4          107.3
     1.066              -51.71          21.24          64.17           53.9          -15.3         -8.813          88.27           8.94         -110.6          101.5          108.3
     1.089              -50.95          20.83           63.4          54.16          -14.7         -7.164          81.08          10.31         -106.5          101.7          109.5
     1.112              -50.02          20.32          62.46          54.47         -13.97         -5.155          72.32          11.98         -101.6          101.8          111.1
     1.136              -48.95          19.74          61.38          54.83         -13.12         -2.826          62.16          13.91         -95.93          102.0          112.9
     1.159              -47.78           19.1           60.2          55.21          -12.2        -0.3041          51.16           16.0         -89.77          102.1          114.8
     1.182              -46.62          18.47          59.02           55.6         -11.27          2.218          40.17          18.09         -83.61          102.3          116.7
     1.205              -45.54          17.88          57.93          55.96         -10.42          4.546          30.01          20.03         -77.92          102.5          118.5
     1.228              -44.61          17.38           57.0          56.27          -9.69          6.556          21.25          21.69         -73.01          102.6          120.1
